# xmcd
#
# Track frame offsets:
#	150
#	36631
#	55906
#	79398
#	104252
#	127588
#	152134
#	185415
#	210052
#	231287
#	253518
#	292023
#
# Disc length: 4403 seconds
# Revision: 0
# Processed by: cddbd v1.5.2PL0 Copyright (c) Steve Scherf et al.
# Submitted via: dBpowerAMP V12.0
#
DISCID=a211310c
DTITLE=Max Bentow - Die Puppenmacherin 5
DYEAR=1900
DGENRE=
TTITLE0=051
TTITLE1=052
TTITLE2=053
TTITLE3=054
TTITLE4=055
TTITLE5=056
TTITLE6=057
TTITLE7=058
TTITLE8=059
TTITLE9=060
TTITLE10=061
TTITLE11=062
EXTD=
EXTT0=
EXTT1=
EXTT2=
EXTT3=
EXTT4=
EXTT5=
EXTT6=
EXTT7=
EXTT8=
EXTT9=
EXTT10=
EXTT11=
PLAYORDER=
